<svg width="272" height="96" viewBox="0 0 272 96" version="1.1" xmlns="http://www.w3.org/2000/svg" xmlns:xlink="http://www.w3.org/1999/xlink">
<title>fluid-icons</title>
<desc>Created using Figma</desc>
<g id="Canvas" transform="translate(-3702 106)">
<clipPath id="clip-0" clip-rule="evenodd">
<path d="M 3702 -106L 3974 -106L 3974 -10L 3702 -10L 3702 -106Z" fill="#FFFFFF"/>
</clipPath>
<g id="fluid-icons" clip-path="url(#clip-0)">
<g id="ic_volume_up_white_24px">
<g id="Vector">
<use xlink:href="#path0_fill" transform="translate(3757 -86)" fill="#FFFFFF"/>
</g>
</g>
<g id="ic_volume_off_white_24px 2">
<g id="Vector">
<use xlink:href="#path1_fill" transform="translate(3757 -48)" fill="#FFFFFF"/>
</g>
</g>
<g id="ic_hd_white_36px">
<g id="Vector">
<use xlink:href="#path2_fill" transform="translate(3830 -84)" fill="#FFFFFF"/>
</g>
</g>
<g id="ic_play_arrow_white_24px">
<g id="Vector">
<use xlink:href="#path3_fill" transform="translate(3723 -86)" fill="#FFFFFF"/>
</g>
</g>
<g id="ic_pause_white_36px">
<g id="Vector">
<use xlink:href="#path4_fill" transform="translate(3723 -48)" fill="#FFFFFF"/>
</g>
</g>
<g id="ic_fullscreen_exit_white_24px">
<g id="Vector">
<use xlink:href="#path5_fill" transform="translate(3795 -46)" fill="#FFFFFF"/>
</g>
</g>
<g id="ic_skip_next_white_36px">
<g id="Vector">
<use xlink:href="#path6_fill" transform="translate(3831 -46)" fill="#FFFFFF"/>
</g>
</g>
<g id="ic_link_white_36px">
<g id="Vector">
<use xlink:href="#path7_fill" transform="translate(3865 -44)" fill="#F2C94C"/>
</g>
</g>
<g id="ic_fullscreen_white_24px">
<g id="Vector">
<use xlink:href="#path8_fill" transform="translate(3795 -84)" fill="#FFFFFF"/>
</g>
</g>
<g id="ic_done_white_24px">
<g id="Vector">
<use xlink:href="#path9_fill" transform="translate(3866 -83)" fill="#FFFFFF"/>
</g>
</g>
<g id="ic_settings_white_24px (1)">
<g id="Vector">
<use xlink:href="#path10_fill" transform="translate(3939 -47)" fill="#FFFFFF"/>
</g>
</g>
<g id="ic_crop_16_9_white_24px">
<g id="Rectangle">
<mask id="mask0_outline_ins">
<use xlink:href="#path11_fill" fill="white" transform="translate(3902 -46)"/>
</mask>
<g mask="url(#mask0_outline_ins)">
<use xlink:href="#path12_stroke_2x" transform="translate(3902 -46)" fill="#FFFFFF"/>
</g>
</g>
</g>
<g id="ic_file_download_white_24px">
<g id="Vector">
<use xlink:href="#path13_fill" transform="translate(3904 -85)" fill="#FFFFFF"/>
</g>
</g>
<g id="ic_timer_white_24px">
<g id="Vector">
<use xlink:href="#path14_fill" transform="translate(3939 -85)" fill="#FFFFFF"/>
</g>
</g>
</g>
</g>
<defs>
<path id="path0_fill" d="M 0 5.59236L 0 11.4076L 3.77778 11.4076L 8.5 16.2537L 8.5 0.746294L 3.77778 5.59236L 0 5.59236ZM 12.75 8.5C 12.75 6.78449 11.7867 5.31129 10.3889 4.59407L 10.3889 12.3962C 11.7867 11.6887 12.75 10.2155 12.75 8.5ZM 10.3889 1.84863e-08L 10.3889 1.99658C 13.1183 2.8301 15.1111 5.42759 15.1111 8.5C 15.1111 11.5724 13.1183 14.1699 10.3889 15.0034L 10.3889 17C 14.1761 16.118 17 12.6482 17 8.5C 17 4.35177 14.1761 0.881984 10.3889 1.84863e-08L 10.3889 1.84863e-08Z"/>
<path id="path1_fill" d="M 12.75 8.5C 12.75 6.82833 11.7867 5.39278 10.3889 4.69389L 10.3889 6.78111L 12.7028 9.095C 12.7311 8.90611 12.75 8.70778 12.75 8.5L 12.75 8.5ZM 15.1111 8.5C 15.1111 9.38778 14.9222 10.2189 14.6011 10.9933L 16.0272 12.4194C 16.6506 11.2483 17 9.91667 17 8.5C 17 4.45778 14.1761 1.07667 10.3889 0.217222L 10.3889 2.16278C 13.1183 2.975 15.1111 5.50611 15.1111 8.5ZM 1.19944 0L 0 1.19944L 4.46722 5.66667L 0 5.66667L 0 11.3333L 3.77778 11.3333L 8.5 16.0556L 8.5 9.69944L 12.5139 13.7133C 11.8811 14.2044 11.1728 14.5917 10.3889 14.8278L 10.3889 16.7733C 11.6922 16.4806 12.8728 15.8761 13.8739 15.0639L 15.8006 17L 17 15.8006L 8.5 7.30055L 1.19944 0ZM 8.5 0.944444L 6.52611 2.91833L 8.5 4.89222L 8.5 0.944444Z"/>
<path id="path2_fill" d="M 12.4444 0L 1.55556 0C 0.692222 0 0 0.7 0 1.55556L 0 12.4444C 0 13.3 0.692222 14 1.55556 14L 12.4444 14C 13.3 14 14 13.3 14 12.4444L 14 1.55556C 14 0.7 13.3 0 12.4444 0ZM 6.22222 9.33333L 5.05556 9.33333L 5.05556 7.77778L 3.5 7.77778L 3.5 9.33333L 2.33333 9.33333L 2.33333 4.66667L 3.5 4.66667L 3.5 6.61111L 5.05556 6.61111L 5.05556 4.66667L 6.22222 4.66667L 6.22222 9.33333ZM 7.77778 4.66667L 10.8889 4.66667C 11.3167 4.66667 11.6667 5.01667 11.6667 5.44444L 11.6667 8.55556C 11.6667 8.98333 11.3167 9.33333 10.8889 9.33333L 7.77778 9.33333L 7.77778 4.66667ZM 8.94444 8.16667L 10.5 8.16667L 10.5 5.83333L 8.94444 5.83333L 8.94444 8.16667Z"/>
<path id="path3_fill" d="M 0 0L 0 17L 13 8.5L 0 0Z"/>
<path id="path4_fill" d="M 0 17L 4.33333 17L 4.33333 0L 0 0L 0 17ZM 8.66667 0L 8.66667 17L 13 17L 13 0L 8.66667 0Z"/>
<path id="path5_fill" d="M 0 11L 3 11L 3 14L 5 14L 5 9L 0 9L 0 11ZM 3 3L 0 3L 0 5L 5 5L 5 0L 3 0L 3 3ZM 9 14L 11 14L 11 11L 14 11L 14 9L 9 9L 9 14ZM 11 3L 11 0L 9 0L 9 5L 14 5L 14 3L 11 3Z"/>
<path id="path6_fill" d="M 0 12L 8.5 6L 0 0L 0 12ZM 10 0L 10 12L 12 12L 12 0L 10 0Z"/>
<path id="path7_fill" d="M 1.52 4.5C 1.52 2.961 2.632 1.71 4 1.71L 7.2 1.71L 7.2 0L 4 0C 1.792 0 0 2.016 0 4.5C 0 6.984 1.792 9 4 9L 7.2 9L 7.2 7.29L 4 7.29C 2.632 7.29 1.52 6.039 1.52 4.5ZM 4.8 5.4L 11.2 5.4L 11.2 3.6L 4.8 3.6L 4.8 5.4ZM 12 0L 8.8 0L 8.8 1.71L 12 1.71C 13.368 1.71 14.48 2.961 14.48 4.5C 14.48 6.039 13.368 7.29 12 7.29L 8.8 7.29L 8.8 9L 12 9C 14.208 9 16 6.984 16 4.5C 16 2.016 14.208 0 12 0Z"/>
<path id="path8_fill" d="M 2 9L 0 9L 0 14L 5 14L 5 12L 2 12L 2 9ZM 0 5L 2 5L 2 2L 5 2L 5 0L 0 0L 0 5ZM 12 12L 9 12L 9 14L 14 14L 14 9L 12 9L 12 12ZM 9 0L 9 2L 12 2L 12 5L 14 5L 14 0L 9 0Z"/>
<path id="path9_fill" d="M 4.45455 8.70149L 1.11364 5.25373L 7.58605e-08 6.40299L 4.45455 11L 14 1.14925L 12.8864 -7.82867e-08L 4.45455 8.70149Z"/>
<path id="path10_fill" d="M 12.3485 7.686C 12.3773 7.462 12.3989 7.238 12.3989 7C 12.3989 6.762 12.3773 6.538 12.3485 6.314L 13.8669 5.159C 14.0037 5.054 14.0396 4.865 13.9533 4.711L 12.514 2.289C 12.4277 2.135 12.2334 2.079 12.075 2.135L 10.2831 2.835C 9.90892 2.555 9.50593 2.324 9.06695 2.149L 8.79349 0.294C 8.7719 0.126 8.62077 0 8.44086 0L 5.56231 0C 5.38241 0 5.23128 0.126 5.20969 0.294L 4.93623 2.149C 4.49725 2.324 4.09425 2.562 3.72004 2.835L 1.92815 2.135C 1.76263 2.072 1.57552 2.135 1.48917 2.289L 0.0498935 4.711C -0.0436593 4.865 -0.000480978 5.054 0.13625 5.159L 1.65468 6.314C 1.6259 6.538 1.60431 6.769 1.60431 7C 1.60431 7.231 1.6259 7.462 1.65468 7.686L 0.13625 8.841C -0.000480978 8.946 -0.0364629 9.135 0.0498935 9.289L 1.48917 11.711C 1.57552 11.865 1.76983 11.921 1.92815 11.865L 3.72004 11.165C 4.09425 11.445 4.49725 11.676 4.93623 11.851L 5.20969 13.706C 5.23128 13.874 5.38241 14 5.56231 14L 8.44086 14C 8.62077 14 8.7719 13.874 8.79349 13.706L 9.06695 11.851C 9.50593 11.676 9.90892 11.438 10.2831 11.165L 12.075 11.865C 12.2405 11.928 12.4277 11.865 12.514 11.711L 13.9533 9.289C 14.0396 9.135 14.0037 8.946 13.8669 8.841L 12.3485 7.686L 12.3485 7.686ZM 7.00159 9.45C 5.61269 9.45 4.48286 8.351 4.48286 7C 4.48286 5.649 5.61269 4.55 7.00159 4.55C 8.39049 4.55 9.52032 5.649 9.52032 7C 9.52032 8.351 8.39049 9.45 7.00159 9.45Z"/>
<path id="path11_fill" d="M 0 0L 16 0L 16 12L 0 12L 0 0Z"/>
<path id="path12_stroke_2x" d="M 0 0L 0 -2L -2 -2L -2 0L 0 0ZM 16 0L 18 0L 18 -2L 16 -2L 16 0ZM 16 12L 16 14L 18 14L 18 12L 16 12ZM 0 12L -2 12L -2 14L 0 14L 0 12ZM 0 2L 16 2L 16 -2L 0 -2L 0 2ZM 14 0L 14 12L 18 12L 18 0L 14 0ZM 16 10L 0 10L 0 14L 16 14L 16 10ZM 2 12L 2 0L -2 0L -2 12L 2 12Z"/>
<path id="path13_fill" d="M 12 5.29412L 8.57143 5.29412L 8.57143 0L 3.42857 0L 3.42857 5.29412L 0 5.29412L 6 11.4706L 12 5.29412ZM 0 13.2353L 0 15L 12 15L 12 13.2353L 0 13.2353Z"/>
<path id="path14_fill" d="M 9.33333 0L 4.66667 0L 4.66667 1.52381L 9.33333 1.52381L 9.33333 0ZM 6.22222 9.90476L 7.77778 9.90476L 7.77778 5.33333L 6.22222 5.33333L 6.22222 9.90476ZM 12.4678 4.86857L 13.5722 3.78667C 13.2378 3.3981 12.8722 3.03238 12.4756 2.71238L 11.3711 3.79429C 10.1656 2.84952 8.64889 2.28571 7 2.28571C 3.13444 2.28571 0 5.35619 0 9.14286C 0 12.9295 3.12667 16 7 16C 10.8733 16 14 12.9295 14 9.14286C 14 7.52762 13.4244 6.0419 12.4678 4.86857ZM 7 14.4762C 3.99 14.4762 1.55556 12.0914 1.55556 9.14286C 1.55556 6.19429 3.99 3.80952 7 3.80952C 10.01 3.80952 12.4444 6.19429 12.4444 9.14286C 12.4444 12.0914 10.01 14.4762 7 14.4762Z"/>
</defs>
</svg>
