<?xml version="1.0" encoding="UTF-8" standalone="no"?>
<svg
   xmlns:dc="http://purl.org/dc/elements/1.1/"
   xmlns:cc="http://creativecommons.org/ns#"
   xmlns:rdf="http://www.w3.org/1999/02/22-rdf-syntax-ns#"
   xmlns:svg="http://www.w3.org/2000/svg"
   xmlns="http://www.w3.org/2000/svg"
   xmlns:xlink="http://www.w3.org/1999/xlink"
   xmlns:sodipodi="http://sodipodi.sourceforge.net/DTD/sodipodi-0.dtd"
   xmlns:inkscape="http://www.inkscape.org/namespaces/inkscape"
   width="311"
   height="96"
   version="1.1"
   viewBox="0 0 311 96"
   id="svg63"
   sodipodi:docname="fluid_icons.svg"
   inkscape:version="0.92.4 (33fec40, 2019-01-16)">
  <metadata
     id="metadata67">
    <rdf:RDF>
      <cc:Work
         rdf:about="">
        <dc:format>image/svg+xml</dc:format>
        <dc:type
           rdf:resource="http://purl.org/dc/dcmitype/StillImage" />
        <dc:title>fluid-icons</dc:title>
      </cc:Work>
    </rdf:RDF>
  </metadata>
  <sodipodi:namedview
     pagecolor="#ffffff"
     bordercolor="#666666"
     borderopacity="1"
     objecttolerance="10"
     gridtolerance="10"
     guidetolerance="10"
     inkscape:pageopacity="0"
     inkscape:pageshadow="2"
     inkscape:window-width="1853"
     inkscape:window-height="1145"
     id="namedview65"
     showgrid="false"
     inkscape:pagecheckerboard="true"
     inkscape:zoom="45.254834"
     inkscape:cx="281.68711"
     inkscape:cy="64.992929"
     inkscape:window-x="67"
     inkscape:window-y="27"
     inkscape:window-maximized="1"
     inkscape:current-layer="svg63" />
  <title
     id="title2">fluid-icons</title>
  <desc
     id="desc4">Created using Figma</desc>
  <path
     style="fill:#ffffff;fill-opacity:1;stroke-width:1.00886583"
     d="M 273.55469 22 C 272.69375 22 272 22.693749 272 23.554688 L 272 34.445312 C 272 35.306251 272.69375 36 273.55469 36 L 284.44531 36 C 285.30625 36 286 35.306251 286 34.445312 L 286 23.554688 C 286 22.693749 285.30625 22 284.44531 22 L 273.55469 22 z M 277.16602 26.541016 C 277.39518 26.541016 277.62044 26.561849 277.8418 26.603516 C 278.06576 26.642578 278.28841 26.702474 278.50977 26.783203 L 278.50977 27.923828 C 278.31966 27.79362 278.12826 27.697266 277.93555 27.634766 C 277.74544 27.572266 277.54753 27.541016 277.3418 27.541016 C 276.95117 27.541016 276.64648 27.655599 276.42773 27.884766 C 276.21159 28.111328 276.10352 28.429036 276.10352 28.837891 C 276.10352 29.246745 276.21159 29.565755 276.42773 29.794922 C 276.64648 30.021484 276.95117 30.134766 277.3418 30.134766 C 277.56055 30.134766 277.76758 30.102214 277.96289 30.037109 C 278.16081 29.972005 278.3431 29.875651 278.50977 29.748047 L 278.50977 30.892578 C 278.29102 30.973307 278.06836 31.033203 277.8418 31.072266 C 277.61784 31.113932 277.39258 31.134766 277.16602 31.134766 C 276.37695 31.134766 275.75977 30.932943 275.31445 30.529297 C 274.86914 30.123047 274.64648 29.559245 274.64648 28.837891 C 274.64648 28.116536 274.86914 27.554036 275.31445 27.150391 C 275.75977 26.744141 276.37695 26.541016 277.16602 26.541016 z M 281.91602 26.541016 C 282.14518 26.541016 282.37044 26.561849 282.5918 26.603516 C 282.81576 26.642578 283.03841 26.702474 283.25977 26.783203 L 283.25977 27.923828 C 283.06966 27.79362 282.87826 27.697266 282.68555 27.634766 C 282.49544 27.572266 282.29753 27.541016 282.0918 27.541016 C 281.70117 27.541016 281.39648 27.655599 281.17773 27.884766 C 280.96159 28.111328 280.85352 28.429036 280.85352 28.837891 C 280.85352 29.246745 280.96159 29.565755 281.17773 29.794922 C 281.39648 30.021484 281.70117 30.134766 282.0918 30.134766 C 282.31055 30.134766 282.51758 30.102214 282.71289 30.037109 C 282.91081 29.972005 283.0931 29.875651 283.25977 29.748047 L 283.25977 30.892578 C 283.04102 30.973307 282.81836 31.033203 282.5918 31.072266 C 282.36784 31.113932 282.14258 31.134766 281.91602 31.134766 C 281.12695 31.134766 280.50977 30.932943 280.06445 30.529297 C 279.61914 30.123047 279.39648 29.559245 279.39648 28.837891 C 279.39648 28.116536 279.61914 27.554036 280.06445 27.150391 C 280.50977 26.744141 281.12695 26.541016 281.91602 26.541016 z "
     id="rect7816" />
  <g
     transform="translate(-3702,106)"
     id="g44">
    <clipPath
       id="q"
       style="clip-rule:evenodd">
      <path
         d="m 3702,-106 h 272 v 96 h -272 z"
         id="path6"
         inkscape:connector-curvature="0"
         style="fill:#ffffff" />
    </clipPath>
    <g
       clip-path="url(#q)"
       id="g42">
      <use
         transform="translate(3757,-86)"
         xlink:href="#o"
         id="use9"
         style="fill:#ffffff"
         x="0"
         y="0"
         width="100%"
         height="100%" />
      <use
         transform="translate(3757,-48)"
         xlink:href="#i"
         id="use11"
         style="fill:#ffffff"
         x="0"
         y="0"
         width="100%"
         height="100%" />
      <use
         transform="translate(3830,-84)"
         xlink:href="#h"
         id="use13"
         style="fill:#ffffff"
         x="0"
         y="0"
         width="100%"
         height="100%" />
      <use
         transform="translate(3723,-86)"
         xlink:href="#g"
         id="use15"
         style="fill:#ffffff"
         x="0"
         y="0"
         width="100%"
         height="100%" />
      <use
         transform="translate(3723,-48)"
         xlink:href="#f"
         id="use17"
         style="fill:#ffffff"
         x="0"
         y="0"
         width="100%"
         height="100%" />
      <use
         transform="translate(3795,-46)"
         xlink:href="#e"
         id="use19"
         style="fill:#ffffff"
         x="0"
         y="0"
         width="100%"
         height="100%" />
      <use
         transform="translate(3831,-46)"
         xlink:href="#d"
         id="use21"
         style="fill:#ffffff"
         x="0"
         y="0"
         width="100%"
         height="100%" />
      <use
         transform="translate(3865,-44)"
         xlink:href="#c"
         id="use23"
         style="fill:#f2c94c"
         x="0"
         y="0"
         width="100%"
         height="100%" />
      <use
         transform="translate(3795,-84)"
         xlink:href="#b"
         id="use25"
         style="fill:#ffffff"
         x="0"
         y="0"
         width="100%"
         height="100%" />
      <use
         transform="translate(3866,-83)"
         xlink:href="#a"
         id="use27"
         style="fill:#ffffff"
         x="0"
         y="0"
         width="100%"
         height="100%" />
      <use
         transform="translate(3939,-47)"
         xlink:href="#n"
         id="use29"
         style="fill:#ffffff"
         x="0"
         y="0"
         width="100%"
         height="100%" />
      <mask
         id="p">
        <use
           transform="translate(3902,-46)"
           xlink:href="#m"
           id="use31"
           style="fill:#ffffff"
           x="0"
           y="0"
           width="100%"
           height="100%" />
      </mask>
      <g
         mask="url(#p)"
         id="g36">
        <use
           transform="translate(3902,-46)"
           xlink:href="#l"
           id="use34"
           style="fill:#ffffff"
           x="0"
           y="0"
           width="100%"
           height="100%" />
      </g>
      <use
         transform="translate(3904,-85)"
         xlink:href="#k"
         id="use38"
         style="fill:#ffffff"
         x="0"
         y="0"
         width="100%"
         height="100%" />
      <use
         transform="translate(3939,-85)"
         xlink:href="#j"
         id="use40"
         style="fill:#ffffff"
         x="0"
         y="0"
         width="100%"
         height="100%" />
    </g>
  </g>
  <defs
     id="defs61">
    <path
       id="o"
       d="m 0,5.5924 v 5.8152 H 3.7778 L 8.5,16.2537 V 0.7467 L 3.7778,5.5928 H 0 Z M 12.75,8.5 c 0,-1.7155 -0.9633,-3.1887 -2.3611,-3.9059 v 7.8021 C 11.7867,11.6887 12.75,10.2155 12.75,8.5 Z M 10.3889,0 v 1.9966 c 2.7294,0.83352 4.7222,3.431 4.7222,6.5034 0,3.0724 -1.9928,5.6699 -4.7222,6.5034 V 17 C 14.1761,16.118 17,12.6482 17,8.5 17,4.3518 14.1761,0.882 10.3889,0 Z"
       inkscape:connector-curvature="0" />
    <path
       id="i"
       d="m 12.75,8.5 c 0,-1.6717 -0.9633,-3.1072 -2.3611,-3.8061 V 6.7811 L 12.7028,9.095 C 12.7311,8.90611 12.75,8.70778 12.75,8.5 Z m 2.3611,0 c 0,0.88778 -0.1889,1.7189 -0.51,2.4933 l 1.4261,1.4261 C 16.6506,11.2483 17,9.9167 17,8.5 17,4.4578 14.1761,1.0767 10.3889,0.2172 V 2.1628 C 13.1183,2.97502 15.1111,5.5061 15.1111,8.5 Z M 1.1991,0 -3e-4,1.1994 4.4669,5.6666 H -3e-4 v 5.6666 h 3.7778 l 4.7222,4.7223 V 9.6993 l 4.0139,4.0139 c -0.6328,0.4911 -1.3411,0.8784 -2.125,1.1145 v 1.9455 c 1.3033,-0.2927 2.4839,-0.8972 3.485,-1.7094 l 1.9267,1.9361 1.1994,-1.1994 -8.5,-8.5 L 1.1991,-1e-4 Z m 7.3006,0.94444 -1.9739,1.9739 1.9739,1.9739 z"
       inkscape:connector-curvature="0" />
    <path
       id="h"
       d="M 12.444,0 H 1.555 C 0.69166,0 -6e-4,0.7 -6e-4,1.5556 v 10.889 c 0,0.8556 0.69222,1.5556 1.5556,1.5556 h 10.889 c 0.8556,0 1.5556,-0.7 1.5556,-1.5556 V 1.5556 C 13.9996,0.70004 13.2996,0 12.444,0 Z M 6.2218,9.3333 H 5.0551 V 7.7777 H 3.4995 V 9.3333 H 2.3328 V 4.6666 H 3.4995 V 6.611 H 5.0551 V 4.6666 H 6.2218 Z M 7.7774,4.6666 h 3.1111 c 0.4278,0 0.7778,0.35 0.7778,0.77777 v 3.1111 c 0,0.42777 -0.35,0.77777 -0.7778,0.77777 H 7.7774 v -4.6667 z m 1.1667,3.5 h 1.5556 V 5.8333 H 8.9441 Z"
       inkscape:connector-curvature="0" />
    <path
       id="g"
       d="M 0,0 V 17 L 13,8.5 Z"
       inkscape:connector-curvature="0" />
    <path
       id="f"
       d="M 0,17 H 4.3333 V 0 H 0 Z M 8.6667,0 V 17 H 13 V 0 Z"
       inkscape:connector-curvature="0" />
    <path
       id="e"
       d="m 0,11 h 3 v 3 H 5 V 9 H 0 Z M 3,3 H 0 V 5 H 5 V 0 H 3 Z m 6,11 h 2 v -3 h 3 V 9 H 9 Z M 11,3 V 0 H 9 v 5 h 5 V 3 Z"
       inkscape:connector-curvature="0" />
    <path
       id="d"
       d="M 0,12 8.5,6 0,0 Z M 10,0 v 12 h 2 V 0 Z"
       inkscape:connector-curvature="0" />
    <path
       id="c"
       d="M 1.52,4.5 C 1.52,2.961 2.632,1.71 4,1.71 H 7.2 V 0 H 4 C 1.792,0 0,2.016 0,4.5 0,6.984 1.792,9 4,9 H 7.2 V 7.29 H 4 C 2.632,7.29 1.52,6.039 1.52,4.5 Z M 4.8,5.4 h 6.4 V 3.6 H 4.8 Z M 12,0 H 8.8 V 1.71 H 12 c 1.368,0 2.48,1.251 2.48,2.79 0,1.539 -1.112,2.79 -2.48,2.79 H 8.8 V 9 H 12 C 14.208,9 16,6.984 16,4.5 16,2.016 14.208,0 12,0 Z"
       inkscape:connector-curvature="0" />
    <path
       id="b"
       d="M 2,9 H 0 v 5 H 5 V 12 H 2 Z M 0,5 H 2 V 2 H 5 V 0 H 0 Z m 12,7 H 9 v 2 h 5 V 9 H 12 Z M 9,0 v 2 h 3 v 3 h 2 V 0 Z"
       inkscape:connector-curvature="0" />
    <path
       id="a"
       d="M 4.4546,8.7015 1.1137,5.2537 1e-4,6.403 4.4546,11 14,1.1492 12.8864,-1e-4 4.4546,8.7014 Z"
       inkscape:connector-curvature="0" />
    <path
       id="n"
       d="M 12.348,7.686 C 12.3768,7.462 12.3984,7.238 12.3984,7 12.3984,6.762 12.3768,6.538 12.348,6.314 L 13.8664,5.159 C 14.0032,5.054 14.0391,4.865 13.9528,4.711 L 12.5135,2.289 C 12.4272,2.135 12.2329,2.079 12.0745,2.135 l -1.7919,0.7 C 9.90842,2.555 9.50543,2.324 9.0664,2.149 L 8.79294,0.294 C 8.77135,0.126 8.62022,0 8.44031,0 H 5.56171 C 5.38181,0 5.23068,0.126 5.20909,0.294 L 4.93563,2.149 C 4.49665,2.324 4.09365,2.562 3.71943,2.835 l -1.7919,-0.7 C 1.76201,2.072 1.5749,2.135 1.48855,2.289 l -1.4393,2.422 c -0.093553,0.154 -0.050374,0.343 0.086356,0.448 l 1.5184,1.155 C 1.625226,6.538 1.603636,6.769 1.603636,7 c 0,0.231 0.02159,0.462 0.05037,0.686 l -1.5184,1.155 c -0.13673,0.105 -0.17271,0.294 -0.086356,0.448 l 1.4393,2.422 c 0.08635,0.154 0.28066,0.21 0.43898,0.154 l 1.7919,-0.7 c 0.37421,0.28 0.77721,0.511 1.2162,0.686 l 0.27346,1.855 C 5.23068,13.874 5.38181,14 5.56171,14 h 2.8786 c 0.17991,0 0.33104,-0.126 0.35263,-0.294 L 9.0664,11.851 c 0.43898,-0.175 0.84197,-0.413 1.2162,-0.686 l 1.7919,0.7 c 0.1655,0.063 0.3527,0 0.439,-0.154 L 13.9528,9.289 C 14.0391,9.135 14.0032,8.946 13.8664,8.841 Z M 7.0011,9.45 C 5.6122,9.45 4.4824,8.351 4.4824,7 4.4824,5.649 5.6122,4.55 7.0011,4.55 8.39,4.55 9.5198,5.649 9.5198,7 9.5198,8.351 8.39,9.45 7.0011,9.45 Z"
       inkscape:connector-curvature="0" />
    <path
       id="m"
       d="M 0,0 H 16 V 12 H 0 Z"
       inkscape:connector-curvature="0" />
    <path
       id="l"
       d="m 0,0 v -2 h -2 v 2 z m 16,0 h 2 v -2 h -2 z m 0,12 v 2 h 2 V 12 Z M 0,12 h -2 v 2 H 0 Z M 0,2 H 16 V -2 H 0 Z M 14,0 v 12 h 4 V 0 Z m 2,10 H 0 v 4 H 16 Z M 2,12 V 0 h -4 v 12 z"
       inkscape:connector-curvature="0" />
    <path
       id="k"
       d="M 12,5.2941 H 8.5714 V 0 H 3.4285 V 5.2941 H -1e-4 l 6,6.1765 6,-6.1765 z M 0,13.2353 V 15 h 12 v -1.7647 z"
       inkscape:connector-curvature="0" />
    <path
       id="j"
       d="M 9.3333,0 H 4.6666 V 1.5238 H 9.3333 Z M 6.2222,9.9048 H 7.7778 V 5.3334 H 6.2222 Z M 12.4678,4.8686 13.5722,3.7867 C 13.2378,3.39813 12.8722,3.03241 12.4756,2.7124 L 11.3711,3.7943 C 10.1656,2.84953 8.6489,2.2857 7,2.2857 3.1344,2.2857 0,5.3562 0,9.1429 0,12.9295 3.1267,16 7,16 10.8733,16 14,12.9295 14,9.1429 14,7.5277 13.4244,6.0419 12.4678,4.8686 Z M 7,14.4762 C 3.99,14.4762 1.5556,12.0914 1.5556,9.1429 1.5556,6.1943 3.99,3.8096 7,3.8096 c 3.01,0 5.4444,2.3848 5.4444,5.3333 0,2.9485 -2.4344,5.3333 -5.4444,5.3333 z"
       inkscape:connector-curvature="0" />
  </defs>
</svg>
