<svg width="262" height="116" viewBox="0 0 262 116" version="1.1" xmlns="http://www.w3.org/2000/svg" xmlns:xlink="http://www.w3.org/1999/xlink">
<title>fluid-icons</title>
<desc>Created using Figma</desc>
<g id="Canvas" transform="translate(-3400 106)">
<clipPath id="clip-0" clip-rule="evenodd">
<path d="M 3400 -106L 3662 -106L 3662 10L 3400 10L 3400 -106Z" fill="#FFFFFF"/>
</clipPath>
<g id="fluid-icons" clip-path="url(#clip-0)">
<g id="ic_volume_up_white_24px">
<g id="Vector">
<use xlink:href="#path0_fill" transform="translate(3486.5 -85.3085)" fill="#FFFFFF"/>
</g>
</g>
<g id="ic_volume_off_white_24px 2">
<g id="Vector">
<use xlink:href="#path1_fill" transform="translate(3486.5 -38.5)" fill="#FFFFFF"/>
</g>
</g>
<g id="ic_hd_white_36px">
<g id="Vector">
<use xlink:href="#path2_fill" transform="translate(3620.38 -85.625)" fill="#FFFFFF"/>
</g>
</g>
<g id="ic_play_arrow_white_24px">
<g id="Vector">
<use xlink:href="#path3_fill" transform="translate(3422.33 -87.1667)" fill="#FFFFFF"/>
</g>
</g>
<g id="ic_pause_white_36px">
<g id="Vector">
<use xlink:href="#path4_fill" transform="translate(3420 -40.1667)" fill="#FFFFFF"/>
</g>
</g>
<g id="ic_fullscreen_exit_white_24px">
<g id="Vector">
<use xlink:href="#path5_fill" transform="translate(3560 -38)" fill="#FFFFFF"/>
</g>
</g>
<g id="ic_skip_next_white_36px">
<g id="Vector">
<use xlink:href="#path6_fill" transform="translate(3625.25 -34.75)" fill="#FFFFFF"/>
</g>
</g>
<g id="ic_fullscreen_white_24px">
<g id="Vector">
<use xlink:href="#path7_fill" transform="translate(3560 -86)" fill="#FFFFFF"/>
</g>
</g>
</g>
</g>
<defs>
<path id="path0_fill" d="M 0 4.80833L 0 9.80833L 3.33333 9.80833L 7.5 13.975L 7.5 0.641667L 3.33333 4.80833L 0 4.80833ZM 11.25 7.30833C 11.25 5.83333 10.4 4.56667 9.16667 3.95L 9.16667 10.6583C 10.4 10.05 11.25 8.78333 11.25 7.30833ZM 9.16667 1.58946e-08L 9.16667 1.71667C 11.575 2.43333 13.3333 4.66667 13.3333 7.30833C 13.3333 9.95 11.575 12.1833 9.16667 12.9L 9.16667 14.6167C 12.5083 13.8583 15 10.875 15 7.30833C 15 3.74167 12.5083 0.758333 9.16667 1.58946e-08L 9.16667 1.58946e-08Z"/>
<path id="path1_fill" d="M 11.25 7.5C 11.25 6.025 10.4 4.75833 9.16667 4.14167L 9.16667 5.98333L 11.2083 8.025C 11.2333 7.85833 11.25 7.68333 11.25 7.5L 11.25 7.5ZM 13.3333 7.5C 13.3333 8.28333 13.1667 9.01667 12.8833 9.7L 14.1417 10.9583C 14.6917 9.925 15 8.75 15 7.5C 15 3.93333 12.5083 0.95 9.16667 0.191667L 9.16667 1.90833C 11.575 2.625 13.3333 4.85833 13.3333 7.5ZM 1.05833 0L 0 1.05833L 3.94167 5L 0 5L 0 10L 3.33333 10L 7.5 14.1667L 7.5 8.55833L 11.0417 12.1C 10.4833 12.5333 9.85833 12.875 9.16667 13.0833L 9.16667 14.8C 10.3167 14.5417 11.3583 14.0083 12.2417 13.2917L 13.9417 15L 15 13.9417L 7.5 6.44167L 1.05833 0ZM 7.5 0.833333L 5.75833 2.575L 7.5 4.31667L 7.5 0.833333Z"/>
<path id="path2_fill" d="M 12.6667 0L 1.58333 0C 0.704583 0 0 0.7125 0 1.58333L 0 12.6667C 0 13.5375 0.704583 14.25 1.58333 14.25L 12.6667 14.25C 13.5375 14.25 14.25 13.5375 14.25 12.6667L 14.25 1.58333C 14.25 0.7125 13.5375 0 12.6667 0ZM 6.33333 9.5L 5.14583 9.5L 5.14583 7.91667L 3.5625 7.91667L 3.5625 9.5L 2.375 9.5L 2.375 4.75L 3.5625 4.75L 3.5625 6.72917L 5.14583 6.72917L 5.14583 4.75L 6.33333 4.75L 6.33333 9.5ZM 7.91667 4.75L 11.0833 4.75C 11.5188 4.75 11.875 5.10625 11.875 5.54167L 11.875 8.70833C 11.875 9.14375 11.5188 9.5 11.0833 9.5L 7.91667 9.5L 7.91667 4.75ZM 9.10417 8.3125L 10.6875 8.3125L 10.6875 5.9375L 9.10417 5.9375L 9.10417 8.3125Z"/>
<path id="path3_fill" d="M 0 0L 0 16.3333L 12.8333 8.16666L 0 0Z"/>
<path id="path4_fill" d="M 0 16.3333L 4.66667 16.3333L 4.66667 0L 0 0L 0 16.3333ZM 9.33333 0L 9.33333 16.3333L 14 16.3333L 14 0L 9.33333 0Z"/>
<path id="path5_fill" d="M 0 11L 3 11L 3 14L 5 14L 5 9L 0 9L 0 11ZM 3 3L 0 3L 0 5L 5 5L 5 0L 3 0L 3 3ZM 9 14L 11 14L 11 11L 14 11L 14 9L 9 9L 9 14ZM 11 3L 11 0L 9 0L 9 5L 14 5L 14 3L 11 3Z"/>
<path id="path6_fill" d="M 0 10.5L 7.4375 5.25L 0 0L 0 10.5ZM 8.75 0L 8.75 10.5L 10.5 10.5L 10.5 0L 8.75 0Z"/>
<path id="path7_fill" d="M 2 9L 0 9L 0 14L 5 14L 5 12L 2 12L 2 9ZM 0 5L 2 5L 2 2L 5 2L 5 0L 0 0L 0 5ZM 12 12L 9 12L 9 14L 14 14L 14 9L 12 9L 12 12ZM 9 0L 9 2L 12 2L 12 5L 14 5L 14 0L 9 0Z"/>
</defs>
</svg>
