<svg width="272" height="96" version="1.1" viewBox="0 0 272 96" xmlns="http://www.w3.org/2000/svg" xmlns:xlink="http://www.w3.org/1999/xlink">
    <title>fluid-icons</title>
    <desc>Created using Figma</desc>
    <g transform="translate(-3702 106)">
        <clipPath id="q" clip-rule="evenodd">
            <path d="m3702-106h272v96h-272v-96z" fill="#fff"/>
        </clipPath>
        <g clip-path="url(#q)">
            <use transform="translate(3757 -86)" fill="#FFFFFF" xlink:href="#o"/>
            <use transform="translate(3757 -48)" fill="#FFFFFF" xlink:href="#i"/>
            <use transform="translate(3830 -84)" fill="#FFFFFF" xlink:href="#h"/>
            <use transform="translate(3723 -86)" fill="#FFFFFF" xlink:href="#g"/>
            <use transform="translate(3723 -48)" fill="#FFFFFF" xlink:href="#f"/>
            <use transform="translate(3795 -46)" fill="#FFFFFF" xlink:href="#e"/>
            <use transform="translate(3831 -46)" fill="#FFFFFF" xlink:href="#d"/>
            <use transform="translate(3865 -44)" fill="#F2C94C" xlink:href="#c"/>
            <use transform="translate(3795 -84)" fill="#FFFFFF" xlink:href="#b"/>
            <use transform="translate(3866 -83)" fill="#FFFFFF" xlink:href="#a"/>
            <use transform="translate(3939 -47)" fill="#FFFFFF" xlink:href="#n"/>
            <mask id="p">
                <use transform="translate(3902 -46)" fill="white" xlink:href="#m"/>
            </mask>
            <g mask="url(#p)">
                <use transform="translate(3902 -46)" fill="#FFFFFF" xlink:href="#l"/>
            </g>
            <use transform="translate(3904 -85)" fill="#FFFFFF" xlink:href="#k"/>
            <use transform="translate(3939 -85)" fill="#FFFFFF" xlink:href="#j"/>
        </g>
    </g>
    <defs>
        <path id="o" d="m0 5.5924v5.8152h3.7778l4.7222 4.8461v-15.507l-4.7222 4.8461h-3.7778zm12.75 2.9076c0-1.7155-0.9633-3.1887-2.3611-3.9059v7.8021c1.3978-0.7075 2.3611-2.1807 2.3611-3.8962zm-2.3611-8.5v1.9966c2.7294 0.83352 4.7222 3.431 4.7222 6.5034 0 3.0724-1.9928 5.6699-4.7222 6.5034v1.9966c3.7872-0.882 6.6111-4.3518 6.6111-8.5 0-4.1482-2.8239-7.618-6.6111-8.5z"/>
        <path id="i" d="m12.75 8.5c0-1.6717-0.9633-3.1072-2.3611-3.8061v2.0872l2.3139 2.3139c0.0283-0.18889 0.0472-0.38722 0.0472-0.595zm2.3611 0c0 0.88778-0.1889 1.7189-0.51 2.4933l1.4261 1.4261c0.6234-1.1711 0.9728-2.5027 0.9728-3.9194 0-4.0422-2.8239-7.4233-6.6111-8.2828v1.9456c2.7294 0.81222 4.7222 3.3433 4.7222 6.3372zm-13.912-8.5l-1.1994 1.1994 4.4672 4.4672h-4.4672v5.6666h3.7778l4.7222 4.7223v-6.3562l4.0139 4.0139c-0.6328 0.4911-1.3411 0.8784-2.125 1.1145v1.9455c1.3033-0.2927 2.4839-0.8972 3.485-1.7094l1.9267 1.9361 1.1994-1.1994-8.5-8.5-7.3006-7.3006zm7.3006 0.94444l-1.9739 1.9739 1.9739 1.9739v-3.9478z"/>
        <path id="h" d="m12.444 0h-10.889c-0.86334 0-1.5556 0.7-1.5556 1.5556v10.889c0 0.8556 0.69222 1.5556 1.5556 1.5556h10.889c0.8556 0 1.5556-0.7 1.5556-1.5556v-10.889c0-0.85556-0.7-1.5556-1.5556-1.5556zm-6.2222 9.3333h-1.1667v-1.5556h-1.5556v1.5556h-1.1667v-4.6667h1.1667v1.9444h1.5556v-1.9444h1.1667v4.6667zm1.5556-4.6667h3.1111c0.4278 0 0.7778 0.35 0.7778 0.77777v3.1111c0 0.42777-0.35 0.77777-0.7778 0.77777h-3.1111v-4.6667zm1.1667 3.5h1.5556v-2.3333h-1.5556v2.3333z"/>
        <path id="g" d="m0 0v17l13-8.5-13-8.5z"/>
        <path id="f" d="m0 17h4.3333v-17h-4.3333v17zm8.6667-17v17h4.3333v-17h-4.3333z"/>
        <path id="e" d="m0 11h3v3h2v-5h-5v2zm3-8h-3v2h5v-5h-2v3zm6 11h2v-3h3v-2h-5v5zm2-11v-3h-2v5h5v-2h-3z"/>
        <path id="d" d="m0 12l8.5-6-8.5-6v12zm10-12v12h2v-12h-2z"/>
        <path id="c" d="m1.52 4.5c0-1.539 1.112-2.79 2.48-2.79h3.2v-1.71h-3.2c-2.208 0-4 2.016-4 4.5s1.792 4.5 4 4.5h3.2v-1.71h-3.2c-1.368 0-2.48-1.251-2.48-2.79zm3.28 0.9h6.4v-1.8h-6.4v1.8zm7.2-5.4h-3.2v1.71h3.2c1.368 0 2.48 1.251 2.48 2.79s-1.112 2.79-2.48 2.79h-3.2v1.71h3.2c2.208 0 4-2.016 4-4.5s-1.792-4.5-4-4.5z"/>
        <path id="b" d="m2 9h-2v5h5v-2h-3v-3zm-2-4h2v-3h3v-2h-5v5zm12 7h-3v2h5v-5h-2v3zm-3-12v2h3v3h2v-5h-5z"/>
        <path id="a" d="m4.4546 8.7015l-3.3409-3.4478-1.1136 1.1493 4.4545 4.597 9.5454-9.8508-1.1136-1.1493-8.4318 8.7015z"/>
        <path id="n" d="m12.348 7.686c0.0288-0.224 0.0504-0.448 0.0504-0.686s-0.0216-0.462-0.0504-0.686l1.5184-1.155c0.1368-0.105 0.1727-0.294 0.0864-0.448l-1.4393-2.422c-0.0863-0.154-0.2806-0.21-0.439-0.154l-1.7919 0.7c-0.37418-0.28-0.77717-0.511-1.2162-0.686l-0.27346-1.855c-0.02159-0.168-0.17272-0.294-0.35263-0.294h-2.8786c-0.1799 0-0.33103 0.126-0.35262 0.294l-0.27346 1.855c-0.43898 0.175-0.84198 0.413-1.2162 0.686l-1.7919-0.7c-0.16552-0.063-0.35263 0-0.43898 0.154l-1.4393 2.422c-0.093553 0.154-0.050374 0.343 0.086356 0.448l1.5184 1.155c-0.02878 0.224-0.05037 0.455-0.05037 0.686s0.02159 0.462 0.05037 0.686l-1.5184 1.155c-0.13673 0.105-0.17271 0.294-0.086356 0.448l1.4393 2.422c0.08635 0.154 0.28066 0.21 0.43898 0.154l1.7919-0.7c0.37421 0.28 0.77721 0.511 1.2162 0.686l0.27346 1.855c0.02159 0.168 0.17272 0.294 0.35262 0.294h2.8786c0.17991 0 0.33104-0.126 0.35263-0.294l0.27346-1.855c0.43898-0.175 0.84197-0.413 1.2162-0.686l1.7919 0.7c0.1655 0.063 0.3527 0 0.439-0.154l1.4393-2.422c0.0863-0.154 0.0504-0.343-0.0864-0.448l-1.5184-1.155zm-5.3469 1.764c-1.3889 0-2.5187-1.099-2.5187-2.45s1.1298-2.45 2.5187-2.45 2.5187 1.099 2.5187 2.45-1.1298 2.45-2.5187 2.45z"/>
        <path id="m" d="m0 0h16v12h-16v-12z"/>
        <path id="l" d="m0 0v-2h-2v2h2zm16 0h2v-2h-2v2zm0 12v2h2v-2h-2zm-16 0h-2v2h2v-2zm0-10h16v-4h-16v4zm14-2v12h4v-12h-4zm2 10h-16v4h16v-4zm-14 2v-12h-4v12h4z"/>
        <path id="k" d="m12 5.2941h-3.4286v-5.2941h-5.1429v5.2941h-3.4286l6 6.1765 6-6.1765zm-12 7.9412v1.7647h12v-1.7647h-12z"/>
        <path id="j" d="m9.3333 0h-4.6667v1.5238h4.6667v-1.5238zm-3.1111 9.9048h1.5556v-4.5714h-1.5556v4.5714zm6.2456-5.0362l1.1044-1.0819c-0.3344-0.38857-0.7-0.75429-1.0966-1.0743l-1.1045 1.0819c-1.2055-0.94477-2.7222-1.5086-4.3711-1.5086-3.8656 0-7 3.0705-7 6.8572 0 3.7866 3.1267 6.8571 7 6.8571 3.8733 0 7-3.0705 7-6.8571 0-1.6152-0.5756-3.101-1.5322-4.2743zm-5.4678 9.6076c-3.01 0-5.4444-2.3848-5.4444-5.3333 0-2.9486 2.4344-5.3333 5.4444-5.3333s5.4444 2.3848 5.4444 5.3333c0 2.9485-2.4344 5.3333-5.4444 5.3333z"/>
    </defs>
</svg>