<svg
    xmlns:xlink="http://www.w3.org/1999/xlink"
    xmlns="http://www.w3.org/2000/svg"
    width="388.75"
    height="96"
    version="1.1"
    viewBox="0 0 388.75 96"
    id="svg63">
    <path
        id="path4087"
        d="m 347.64062,35.959 a 6.9826789,6.9826789 0 0 0 6.98438,-6.984375 6.9826789,6.9826789 0 0 0 -6.98438,-6.982422 6.9826789,6.9826789 0 0 0 -6.98242,6.982422 6.9826789,6.9826789 0 0 0 6.98242,6.984375 z m 0,-2.476562 a 4.5078053,4.5078053 0 0 1 -4.50781,-4.507813 4.5078053,4.5078053 0 0 1 4.50781,-4.507812 4.5078053,4.5078053 0 0 1 4.50781,4.507812 4.5078053,4.5078053 0 0 1 -4.50781,4.507813 z"
        style="fill:#ffffff;fill-opacity:1;stroke-width:1.70873225"
    />
    <path
        style="fill:#ffffff;fill-opacity:1;stroke-width:1.00886583"
        d="M 273.55469,22 C 272.69375,22 272,22.693749 272,23.554688 V 34.445312 C 272,35.306251 272.69375,36 273.55469,36 h 10.89062 C 285.30625,36 286,35.306251 286,34.445312 V 23.554688 C 286,22.693749 285.30625,22 284.44531,22 Z m 3.61133,4.541016 c 0.22916,0 0.45442,0.02083 0.67578,0.0625 0.22396,0.03906 0.44661,0.09896 0.66797,0.179687 v 1.140625 c -0.19011,-0.130208 -0.38151,-0.226562 -0.57422,-0.289062 -0.19011,-0.0625 -0.38802,-0.09375 -0.59375,-0.09375 -0.39063,0 -0.69532,0.114583 -0.91407,0.34375 -0.21614,0.226562 -0.32421,0.54427 -0.32421,0.953125 0,0.408854 0.10807,0.727864 0.32421,0.957031 0.21875,0.226562 0.52344,0.339844 0.91407,0.339844 0.21875,0 0.42578,-0.03255 0.62109,-0.09766 0.19792,-0.0651 0.38021,-0.161458 0.54688,-0.289062 v 1.144531 c -0.21875,0.08073 -0.44141,0.140625 -0.66797,0.179688 -0.22396,0.04167 -0.44922,0.0625 -0.67578,0.0625 -0.78907,0 -1.40625,-0.201823 -1.85157,-0.605469 -0.44531,-0.40625 -0.66797,-0.970052 -0.66797,-1.691406 0,-0.721355 0.22266,-1.283855 0.66797,-1.6875 0.44532,-0.40625 1.0625,-0.609375 1.85157,-0.609375 z m 4.75,0 c 0.22916,0 0.45442,0.02083 0.67578,0.0625 0.22396,0.03906 0.44661,0.09896 0.66797,0.179687 v 1.140625 c -0.19011,-0.130208 -0.38151,-0.226562 -0.57422,-0.289062 -0.19011,-0.0625 -0.38802,-0.09375 -0.59375,-0.09375 -0.39063,0 -0.69532,0.114583 -0.91407,0.34375 -0.21614,0.226562 -0.32421,0.54427 -0.32421,0.953125 0,0.408854 0.10807,0.727864 0.32421,0.957031 0.21875,0.226562 0.52344,0.339844 0.91407,0.339844 0.21875,0 0.42578,-0.03255 0.62109,-0.09766 0.19792,-0.0651 0.38021,-0.161458 0.54688,-0.289062 v 1.144531 c -0.21875,0.08073 -0.44141,0.140625 -0.66797,0.179688 -0.22396,0.04167 -0.44922,0.0625 -0.67578,0.0625 -0.78907,0 -1.40625,-0.201823 -1.85157,-0.605469 -0.44531,-0.40625 -0.66797,-0.970052 -0.66797,-1.691406 0,-0.721355 0.22266,-1.283855 0.66797,-1.6875 0.44532,-0.40625 1.0625,-0.609375 1.85157,-0.609375 z"
        id="rect7816"
    />
    <g
        transform="translate(-3702,106)"
        id="g44">
        <clipPath
            id="q"
            style="clip-rule:evenodd">
            <path
                d="m 3702,-106 h 272 v 96 h -272 z"
                id="path6"

                style="fill:#ffffff"/>
        </clipPath>
        <g
            clip-path="url(#q)"
            id="g42">
            <use
                transform="translate(3757,-86)"
                xlink:href="#o"
                id="use9"
                style="fill:#ffffff"
                x="0"
                y="0"
                width="100%"
                height="100%"/>
            <use
                transform="translate(3757,-48)"
                xlink:href="#i"
                id="use11"
                style="fill:#ffffff"
                x="0"
                y="0"
                width="100%"
                height="100%"/>
            <use
                transform="translate(3830,-84)"
                xlink:href="#h"
                id="use13"
                style="fill:#ffffff"
                x="0"
                y="0"
                width="100%"
                height="100%"/>
            <use
                transform="translate(3723,-86)"
                xlink:href="#g"
                id="use15"
                style="fill:#ffffff"
                x="0"
                y="0"
                width="100%"
                height="100%"/>
            <use
                transform="translate(3723,-48)"
                xlink:href="#f"
                id="use17"
                style="fill:#ffffff"
                x="0"
                y="0"
                width="100%"
                height="100%"/>
            <use
                transform="translate(3795,-46)"
                xlink:href="#e"
                id="use19"
                style="fill:#ffffff"
                x="0"
                y="0"
                width="100%"
                height="100%"/>
            <use
                transform="translate(3831,-46)"
                xlink:href="#d"
                id="use21"
                style="fill:#ffffff"
                x="0"
                y="0"
                width="100%"
                height="100%"/>
            <use
                transform="translate(3865,-44)"
                xlink:href="#c"
                id="use23"
                style="fill:#f2c94c"
                x="0"
                y="0"
                width="100%"
                height="100%"/>
            <use
                transform="translate(3795,-84)"
                xlink:href="#b"
                id="use25"
                style="fill:#ffffff"
                x="0"
                y="0"
                width="100%"
                height="100%"/>
            <use
                transform="translate(3866,-83)"
                xlink:href="#a"
                id="use27"
                style="fill:#ffffff"
                x="0"
                y="0"
                width="100%"
                height="100%"/>
            <use
                transform="translate(3939,-47)"
                xlink:href="#n"
                id="use29"
                style="fill:#ffffff"
                x="0"
                y="0"
                width="100%"
                height="100%"/>
            <mask
                id="p">
                <use
                    transform="translate(3902,-46)"
                    xlink:href="#m"
                    id="use31"
                    style="fill:#ffffff"
                    x="0"
                    y="0"
                    width="100%"
                    height="100%"/>
            </mask>
            <g
                mask="url(#p)"
                id="g36">
                <use
                    transform="translate(3902,-46)"
                    xlink:href="#l"
                    id="use34"
                    style="fill:#ffffff"
                    x="0"
                    y="0"
                    width="100%"
                    height="100%"/>
            </g>
            <use
                transform="translate(3904,-85)"
                xlink:href="#k"
                id="use38"
                style="fill:#ffffff"
                x="0"
                y="0"
                width="100%"
                height="100%"/>
            <use
                transform="translate(3939,-85)"
                xlink:href="#j"
                id="use40"
                style="fill:#ffffff"
                x="0"
                y="0"
                width="100%"
                height="100%"/>
        </g>
    </g>
    <defs
        id="defs61">
        <path
            id="o"
            d="m 0,5.5924 v 5.8152 H 3.7778 L 8.5,16.2537 V 0.7467 L 3.7778,5.5928 H 0 Z M 12.75,8.5 c 0,-1.7155 -0.9633,-3.1887 -2.3611,-3.9059 v 7.8021 C 11.7867,11.6887 12.75,10.2155 12.75,8.5 Z M 10.3889,0 v 1.9966 c 2.7294,0.83352 4.7222,3.431 4.7222,6.5034 0,3.0724 -1.9928,5.6699 -4.7222,6.5034 V 17 C 14.1761,16.118 17,12.6482 17,8.5 17,4.3518 14.1761,0.882 10.3889,0 Z"
        />
        <path
            id="i"
            d="m 12.75,8.5 c 0,-1.6717 -0.9633,-3.1072 -2.3611,-3.8061 V 6.7811 L 12.7028,9.095 C 12.7311,8.90611 12.75,8.70778 12.75,8.5 Z m 2.3611,0 c 0,0.88778 -0.1889,1.7189 -0.51,2.4933 l 1.4261,1.4261 C 16.6506,11.2483 17,9.9167 17,8.5 17,4.4578 14.1761,1.0767 10.3889,0.2172 V 2.1628 C 13.1183,2.97502 15.1111,5.5061 15.1111,8.5 Z M 1.1991,0 -3e-4,1.1994 4.4669,5.6666 H -3e-4 v 5.6666 h 3.7778 l 4.7222,4.7223 V 9.6993 l 4.0139,4.0139 c -0.6328,0.4911 -1.3411,0.8784 -2.125,1.1145 v 1.9455 c 1.3033,-0.2927 2.4839,-0.8972 3.485,-1.7094 l 1.9267,1.9361 1.1994,-1.1994 -8.5,-8.5 L 1.1991,-1e-4 Z m 7.3006,0.94444 -1.9739,1.9739 1.9739,1.9739 z"
        />
        <path
            id="h"
            d="M 12.444,0 H 1.555 C 0.69166,0 -6e-4,0.7 -6e-4,1.5556 v 10.889 c 0,0.8556 0.69222,1.5556 1.5556,1.5556 h 10.889 c 0.8556,0 1.5556,-0.7 1.5556,-1.5556 V 1.5556 C 13.9996,0.70004 13.2996,0 12.444,0 Z M 6.2218,9.3333 H 5.0551 V 7.7777 H 3.4995 V 9.3333 H 2.3328 V 4.6666 H 3.4995 V 6.611 H 5.0551 V 4.6666 H 6.2218 Z M 7.7774,4.6666 h 3.1111 c 0.4278,0 0.7778,0.35 0.7778,0.77777 v 3.1111 c 0,0.42777 -0.35,0.77777 -0.7778,0.77777 H 7.7774 v -4.6667 z m 1.1667,3.5 h 1.5556 V 5.8333 H 8.9441 Z"
        />
        <path
            id="g"
            d="M 0,0 V 17 L 13,8.5 Z"
        />
        <path
            id="f"
            d="M 0,17 H 4.3333 V 0 H 0 Z M 8.6667,0 V 17 H 13 V 0 Z"
        />
        <path
            id="e"
            d="m 0,11 h 3 v 3 H 5 V 9 H 0 Z M 3,3 H 0 V 5 H 5 V 0 H 3 Z m 6,11 h 2 v -3 h 3 V 9 H 9 Z M 11,3 V 0 H 9 v 5 h 5 V 3 Z"
        />
        <path
            id="d"
            d="M 0,12 8.5,6 0,0 Z M 10,0 v 12 h 2 V 0 Z"
        />
        <path
            id="c"
            d="M 1.52,4.5 C 1.52,2.961 2.632,1.71 4,1.71 H 7.2 V 0 H 4 C 1.792,0 0,2.016 0,4.5 0,6.984 1.792,9 4,9 H 7.2 V 7.29 H 4 C 2.632,7.29 1.52,6.039 1.52,4.5 Z M 4.8,5.4 h 6.4 V 3.6 H 4.8 Z M 12,0 H 8.8 V 1.71 H 12 c 1.368,0 2.48,1.251 2.48,2.79 0,1.539 -1.112,2.79 -2.48,2.79 H 8.8 V 9 H 12 C 14.208,9 16,6.984 16,4.5 16,2.016 14.208,0 12,0 Z"
        />
        <path
            id="b"
            d="M 2,9 H 0 v 5 H 5 V 12 H 2 Z M 0,5 H 2 V 2 H 5 V 0 H 0 Z m 12,7 H 9 v 2 h 5 V 9 H 12 Z M 9,0 v 2 h 3 v 3 h 2 V 0 Z"
        />
        <path
            id="a"
            d="M 4.4546,8.7015 1.1137,5.2537 1e-4,6.403 4.4546,11 14,1.1492 12.8864,-1e-4 4.4546,8.7014 Z"
        />
        <path
            id="n"
            d="M 12.348,7.686 C 12.3768,7.462 12.3984,7.238 12.3984,7 12.3984,6.762 12.3768,6.538 12.348,6.314 L 13.8664,5.159 C 14.0032,5.054 14.0391,4.865 13.9528,4.711 L 12.5135,2.289 C 12.4272,2.135 12.2329,2.079 12.0745,2.135 l -1.7919,0.7 C 9.90842,2.555 9.50543,2.324 9.0664,2.149 L 8.79294,0.294 C 8.77135,0.126 8.62022,0 8.44031,0 H 5.56171 C 5.38181,0 5.23068,0.126 5.20909,0.294 L 4.93563,2.149 C 4.49665,2.324 4.09365,2.562 3.71943,2.835 l -1.7919,-0.7 C 1.76201,2.072 1.5749,2.135 1.48855,2.289 l -1.4393,2.422 c -0.093553,0.154 -0.050374,0.343 0.086356,0.448 l 1.5184,1.155 C 1.625226,6.538 1.603636,6.769 1.603636,7 c 0,0.231 0.02159,0.462 0.05037,0.686 l -1.5184,1.155 c -0.13673,0.105 -0.17271,0.294 -0.086356,0.448 l 1.4393,2.422 c 0.08635,0.154 0.28066,0.21 0.43898,0.154 l 1.7919,-0.7 c 0.37421,0.28 0.77721,0.511 1.2162,0.686 l 0.27346,1.855 C 5.23068,13.874 5.38181,14 5.56171,14 h 2.8786 c 0.17991,0 0.33104,-0.126 0.35263,-0.294 L 9.0664,11.851 c 0.43898,-0.175 0.84197,-0.413 1.2162,-0.686 l 1.7919,0.7 c 0.1655,0.063 0.3527,0 0.439,-0.154 L 13.9528,9.289 C 14.0391,9.135 14.0032,8.946 13.8664,8.841 Z M 7.0011,9.45 C 5.6122,9.45 4.4824,8.351 4.4824,7 4.4824,5.649 5.6122,4.55 7.0011,4.55 8.39,4.55 9.5198,5.649 9.5198,7 9.5198,8.351 8.39,9.45 7.0011,9.45 Z"
        />
        <path
            id="m"
            d="M 0,0 H 16 V 12 H 0 Z"
        />
        <path
            id="l"
            d="m 0,0 v -2 h -2 v 2 z m 16,0 h 2 v -2 h -2 z m 0,12 v 2 h 2 V 12 Z M 0,12 h -2 v 2 H 0 Z M 0,2 H 16 V -2 H 0 Z M 14,0 v 12 h 4 V 0 Z m 2,10 H 0 v 4 H 16 Z M 2,12 V 0 h -4 v 12 z"
        />
        <path
            id="k"
            d="M 12,5.2941 H 8.5714 V 0 H 3.4285 V 5.2941 H -1e-4 l 6,6.1765 6,-6.1765 z M 0,13.2353 V 15 h 12 v -1.7647 z"
        />
        <path
            id="j"
            d="M 9.3333,0 H 4.6666 V 1.5238 H 9.3333 Z M 6.2222,9.9048 H 7.7778 V 5.3334 H 6.2222 Z M 12.4678,4.8686 13.5722,3.7867 C 13.2378,3.39813 12.8722,3.03241 12.4756,2.7124 L 11.3711,3.7943 C 10.1656,2.84953 8.6489,2.2857 7,2.2857 3.1344,2.2857 0,5.3562 0,9.1429 0,12.9295 3.1267,16 7,16 10.8733,16 14,12.9295 14,9.1429 14,7.5277 13.4244,6.0419 12.4678,4.8686 Z M 7,14.4762 C 3.99,14.4762 1.5556,12.0914 1.5556,9.1429 1.5556,6.1943 3.99,3.8096 7,3.8096 c 3.01,0 5.4444,2.3848 5.4444,5.3333 0,2.9485 -2.4344,5.3333 -5.4444,5.3333 z"
        />
    </defs>
    <g
        id="g3989"
        transform="matrix(0.03107656,0,0,0.03432918,271.52581,57.128037)"
        style="fill:#ffffff">
        <g
            id="g3979"
            style="fill:#ffffff">
            <path
                style="fill:#ffffff;stroke-width:0.03266241"
                d="m 273.49023,60.4375 c -1.07158,0 -1.96484,0.958273 -1.96484,2.169922 v 6.61914 c 0,1.216352 0.89727,2.167935 1.96484,2.167969 h 2.87305 c 0.52417,0 1.01765,-0.2246 1.39063,-0.634765 l 1,-1.103516 c 0.19059,-0.211639 0.45448,-0.333984 0.72656,-0.333984 0.27207,0 0.53829,0.122547 0.73047,0.335937 l 0.99804,1.101563 c 0.37212,0.409203 0.86646,0.634765 1.39063,0.634765 h 2.87305 c 1.07158,0 1.96484,-0.95632 1.96484,-2.167969 v -6.61914 c 0,-1.216352 -0.89727,-2.169922 -1.96484,-2.169922 z m 2.4961,3.308594 c 1.08295,0 1.96484,0.973618 1.96484,2.169922 0,1.196303 -0.88185,2.169921 -1.96484,2.169922 -1.08299,0 -1.96485,-0.973619 -1.96485,-2.169922 0,-1.196304 0.88189,-2.169922 1.96485,-2.169922 z m 6.99023,0 c 1.08296,0 1.96485,0.973618 1.96485,2.169922 0,1.196303 -0.88189,2.169922 -1.96485,2.169922 -1.08298,0 -1.96484,-0.973619 -1.96484,-2.169922 0,-1.196304 0.88189,-2.169922 1.96484,-2.169922 z"
                transform="matrix(32.178594,0,0,29.129737,-8737.3187,-1664.1247)"
                id="path3977"
            />
        </g>
        <g
            id="g3983"
            style="fill:#ffffff"/>
        <g
            id="g3987"
            style="fill:#ffffff"/>
    </g>
    <path
        style="fill:#ffffff;fill-opacity:1"
        d="M 317.03125 21.992188 A 6.9826789 6.9826789 0 0 0 310.04883 28.976562 A 6.9826789 6.9826789 0 0 0 317.03125 35.958984 A 6.9826789 6.9826789 0 0 0 324.01367 28.976562 A 6.9826789 6.9826789 0 0 0 317.03125 21.992188 z M 312.20703 27.580078 L 321.94336 27.642578 C 322.32865 27.645013 322.63647 27.956519 322.63281 28.341797 L 322.62109 29.603516 C 322.61743 29.988794 322.30326 30.297356 321.91797 30.294922 L 312.18164 30.232422 C 311.79635 30.229987 311.48853 29.918481 311.49219 29.533203 L 311.50391 28.271484 C 311.50757 27.886206 311.82174 27.577644 312.20703 27.580078 z "
        id="path3997"/>
    <path
        style="fill:#ffffff;fill-opacity:1"
        d="M 317.03125 59.992188 A 6.9826789 6.9826789 0 0 0 310.04883 66.976562 A 6.9826789 6.9826789 0 0 0 317.03125 73.958984 A 6.9826789 6.9826789 0 0 0 324.01367 66.976562 A 6.9826789 6.9826789 0 0 0 317.03125 59.992188 z M 316.49805 61.365234 L 317.76172 61.382812 C 318.14697 61.388692 318.45192 61.704576 318.44727 62.089844 L 318.4043 65.619141 L 321.94336 65.642578 C 322.32865 65.645013 322.63647 65.956519 322.63281 66.341797 L 322.62109 67.603516 C 322.61743 67.988794 322.30326 68.297356 321.91797 68.294922 L 318.37305 68.271484 L 318.33008 71.826172 C 318.32543 72.21144 318.0122 72.515645 317.62695 72.509766 L 316.36328 72.492188 C 315.97803 72.486309 315.67308 72.170424 315.67773 71.785156 L 315.7207 68.255859 L 312.18164 68.232422 C 311.79635 68.229987 311.48853 67.918481 311.49219 67.533203 L 311.50391 66.271484 C 311.50757 65.886206 311.82174 65.577644 312.20703 65.580078 L 315.75195 65.603516 L 315.79492 62.048828 C 315.79957 61.66356 316.1128 61.359355 316.49805 61.365234 z "
        id="path3997-6"/>
    <ellipse
        style="fill:#800000;fill-opacity:1;stroke-width:1.10310566"
        id="circle4073"
        cx="353.64172"
        cy="-28.97954"
        transform="scale(1,-1)"
    />
    <g
        id="g7787"
        transform="matrix(-0.02885349,0,0,-0.02885337,352.04486,75.172258)"
        style="fill:#ffffff;fill-opacity:1">
        <g
            id="g7731"
            transform="translate(-90.566882,42.049084)"
            style="fill:#ffffff;fill-opacity:1">
            <path
                id="path7729"
                d="M 242.607,0 C 108.629,0 0.001,108.628 0.001,242.606 c 0,133.976 108.628,242.606 242.606,242.606 133.978,0 242.604,-108.631 242.604,-242.606 C 485.212,108.628 376.585,0 242.607,0 Z M 401.815,288.094 H 219.862 v 90.979 L 83.397,242.606 219.862,106.141 v 90.978 h 181.953 z"

                style="fill:#ffffff;fill-opacity:1"/>

        </g>
        <g
            id="g7733"
            style="fill:#ffffff;fill-opacity:1">
        </g>
        <g
            id="g7735"
            style="fill:#ffffff;fill-opacity:1">
        </g>
        <g
            id="g7737"
            style="fill:#ffffff;fill-opacity:1">
        </g>
        <g
            id="g7739"
            style="fill:#ffffff;fill-opacity:1">
        </g>
        <g
            id="g7741"
            style="fill:#ffffff;fill-opacity:1">
        </g>
        <g
            id="g7743"
            style="fill:#ffffff;fill-opacity:1">
        </g>
        <g
            id="g7745"
            style="fill:#ffffff;fill-opacity:1">
        </g>
        <g
            id="g7747"
            style="fill:#ffffff;fill-opacity:1">
        </g>
        <g
            id="g7749"
            style="fill:#ffffff;fill-opacity:1">
        </g>
        <g
            id="g7751"
            style="fill:#ffffff;fill-opacity:1">
        </g>
        <g
            id="g7753"
            style="fill:#ffffff;fill-opacity:1">
        </g>
        <g
            id="g7755"
            style="fill:#ffffff;fill-opacity:1">
        </g>
        <g
            id="g7757"
            style="fill:#ffffff;fill-opacity:1">
        </g>
        <g
            id="g7759"
            style="fill:#ffffff;fill-opacity:1">
        </g>
        <g
            id="g7761"
            style="fill:#ffffff;fill-opacity:1">
        </g>
    </g>
</svg>
